PathFileType	4	(X/Y/Z)	C:\Users\WrightLab\Desktop\Jo\P2_Trial40.trc
DataRate	CameraRate	NumFrames	NumMarkers	Units	OrigDataRate	OrigDataStartFrame	OrigNumFrames
100.00	100.00	       7	19	mm	100.00	240	       479
Frame#	Time	Headset_Front			Headset_Back			Headset_Left			Headset_Right			Left_Shoulder			Right_Shoulder			Sternum			C7			Left Elbow			Right Elbow			Left Wrist			Right Wrist			Left ASIS			Right ASIS			S2			Left Knee			Right Knee			Left Ankle			Right Ankle			
		X1	Y1	Z1	X2	Y2	Z2	X3	Y3	Z3	X4	Y4	Z4	X5	Y5	Z5	X6	Y6	Z6	X7	Y7	Z7	X8	Y8	Z8	X9	Y9	Z9	X10	Y10	Z10	X11	Y11	Z11	X12	Y12	Z12	X13	Y13	Z13	X14	Y14	Z14	X15	Y15	Z15	X16	Y16	Z16	X17	Y17	Z17	X18	Y18	Z18	X19	Y19	Z19	

240	2.390	92.08379	1485.14868	985.00153	23.08036	1692.67493	768.81458				-30.50990	1565.36560	950.16577	153.59975	1456.56738	705.57141	-141.39200	1420.28564	856.04053	46.83155	1326.22583	841.45294	-53.62704	1429.32947	685.92468	293.61542	1122.41260	724.03180	-256.95758	1096.30286	801.52936	345.72775	890.94678	773.60181	-277.09860	843.11511	797.00385	150.38614	1031.11267	830.69427	35.22767	1009.97894	905.84967	-32.73271	943.12073	640.98529	100.11727	466.75949	569.98688	14.89988	567.53796	921.57312	-2.40240	153.28130	426.32486	200.03159	208.67722	1045.93640	
241	2.400	95.81668	1486.64648	994.94684	28.36384	1693.77808	777.57318				-26.77847	1566.27356	958.73071	159.35796	1459.13721	715.51147	-135.41814	1422.23767	865.14905	52.82516	1328.24927	850.96436	-47.16795	1430.26855	694.51398	297.50351	1124.70093	734.18146	-249.41081	1096.14087	812.61981	348.75015	892.98413	783.25836	-268.37131	842.80310	810.81262	157.08810	1033.53015	840.38312	41.92490	1013.84430	915.49396	-26.90379	943.99530	651.75433	109.52010	468.57425	581.88214	20.79976	571.39008	933.74426	5.86290	156.46960	436.47040	202.44283	200.85074	1047.19971	
242	2.410	100.35027	1488.56531	1004.40417	32.69988	1695.17029	786.58514				-22.94180	1566.93335	966.97510	164.37234	1461.00659	724.19440	-129.62956	1423.39111	873.84497	59.02653	1329.82886	859.65887	-41.72367	1431.11084	704.15338	301.74619	1126.21619	744.99188	-241.50307	1096.67529	823.86963	351.02179	894.67950	794.51013	-259.57272	843.39227	825.03271	163.31187	1035.65039	850.14819	48.61179	1017.75024	925.80646	-21.11563	945.30438	662.09900	118.67873	469.74271	593.62335	26.77457	573.85492	945.82477	14.16461	160.64232	445.35168	204.28552	193.16977	1048.56567	
243	2.420	103.61665	1490.26624	1014.65894	36.48535	1696.71228	795.13983				-19.00931	1567.57617	974.92816	170.59692	1463.41931	734.09515	-123.64565	1424.32642	882.26746	65.31160	1331.17090	868.81439	-35.57616	1431.36340	712.80701	306.13440	1128.48254	755.57965	-233.51395	1096.34912	834.65009	353.69196	895.25409	803.67383	-250.85928	843.17017	839.41760	170.01872	1038.00037	860.21545	55.36979	1020.24750	935.75635	-15.68316	945.91254	672.69067	128.58438	471.05902	605.10199	32.59995	576.05322	957.57275	22.61822	163.25330	456.03168	204.13031	186.04932	1048.37585	
244	2.430	107.39499	1491.46057	1022.67102	41.05003	1697.61096	803.59583				-15.46837	1567.83191	982.49579	176.07645	1464.96716	742.27014	-118.11507	1425.15247	889.79071	71.36195	1334.20435	872.63904	-29.83485	1432.33740	721.32281	310.92834	1129.68982	766.16742	-225.89316	1096.16382	845.71820	356.20477	896.75281	814.17694	-241.55263	843.29724	853.93817	175.63742	1039.52869	868.91364	61.54987	1022.03876	945.78833	-9.40833	946.21893	681.84412	137.85248	471.96860	616.78265	37.94040	577.32855	969.51062	30.53772	167.06363	469.78455	205.09117	180.16594	1048.68445	
245	2.440	110.59455	1492.90784	1031.91748	46.48362	1698.20544	811.86597				-12.04595	1568.27197	989.85797	181.40726	1466.25940	751.06299	-112.58454	1426.40247	897.92169	77.67743	1335.52246	881.38831	-24.44971	1432.69324	729.74707	315.62344	1131.19116	776.56531	-218.65678	1096.27344	857.09448	359.43253	896.96057	825.19006	-231.33434	842.46436	868.86780	181.84418	1040.83057	878.77094	68.82394	1022.39404	953.49963	-4.14950	946.46686	692.23267	147.58176	471.95889	629.86627	43.28727	576.88562	982.86047	39.11555	171.29875	482.73627	204.21017	174.82703	1048.70142	
246	2.450	114.89900	1494.61890	1041.14978	51.17348	1699.86426	820.29669				-9.18557	1569.08459	997.50018	186.99480	1467.38086	759.46008	-107.01708	1427.11023	906.72455	82.36054	1335.13721	893.58936	-19.27475	1433.68945	738.14569	320.37860	1132.11877	786.38403	-211.50859	1096.29321	868.74170	362.91910	897.76074	834.85565	-222.32301	842.48804	883.94086	186.99283	1041.78259	886.83209	74.44504	1022.25793	963.56250	1.24500	946.42078	701.53973	158.22961	472.60754	643.04602	47.76291	576.47888	995.84454	47.51065	174.59074	495.87604	201.99437	169.69046	1049.56860	
